G04 EAGLE Gerber RS-274X export*
G75*
%MOMM*%
%FSLAX34Y34*%
%LPD*%
%INTop Copper*%
%IPPOS*%
%AMOC8*
5,1,8,0,0,1.08239X$1,22.5*%
G01*
%ADD10C,0.152400*%
%ADD11P,1.732040X8X112.500000*%
%ADD12C,1.676400*%
%ADD13C,1.676400*%
%ADD14C,2.514600*%
%ADD15C,1.650000*%
%ADD16C,1.950000*%


D10*
X-88138Y584962D02*
X-82719Y601218D01*
X-77301Y584962D01*
X-78655Y589026D02*
X-86783Y589026D01*
X-70872Y593993D02*
X-66356Y593993D01*
X-66356Y593994D02*
X-66223Y593992D01*
X-66091Y593986D01*
X-65959Y593976D01*
X-65827Y593963D01*
X-65695Y593945D01*
X-65565Y593924D01*
X-65434Y593899D01*
X-65305Y593870D01*
X-65177Y593837D01*
X-65049Y593801D01*
X-64923Y593761D01*
X-64798Y593717D01*
X-64674Y593669D01*
X-64552Y593618D01*
X-64431Y593563D01*
X-64312Y593505D01*
X-64194Y593443D01*
X-64079Y593378D01*
X-63965Y593309D01*
X-63854Y593238D01*
X-63745Y593162D01*
X-63638Y593084D01*
X-63533Y593003D01*
X-63431Y592918D01*
X-63331Y592831D01*
X-63234Y592741D01*
X-63139Y592648D01*
X-63048Y592552D01*
X-62959Y592454D01*
X-62873Y592353D01*
X-62790Y592249D01*
X-62710Y592143D01*
X-62634Y592035D01*
X-62560Y591925D01*
X-62490Y591812D01*
X-62423Y591698D01*
X-62360Y591581D01*
X-62300Y591463D01*
X-62243Y591343D01*
X-62190Y591221D01*
X-62141Y591098D01*
X-62095Y590974D01*
X-62053Y590848D01*
X-62015Y590721D01*
X-61980Y590593D01*
X-61949Y590464D01*
X-61922Y590335D01*
X-61899Y590204D01*
X-61879Y590073D01*
X-61864Y589941D01*
X-61852Y589809D01*
X-61844Y589677D01*
X-61840Y589544D01*
X-61840Y589412D01*
X-61844Y589279D01*
X-61852Y589147D01*
X-61864Y589015D01*
X-61879Y588883D01*
X-61899Y588752D01*
X-61922Y588621D01*
X-61949Y588492D01*
X-61980Y588363D01*
X-62015Y588235D01*
X-62053Y588108D01*
X-62095Y587982D01*
X-62141Y587858D01*
X-62190Y587735D01*
X-62243Y587613D01*
X-62300Y587493D01*
X-62360Y587375D01*
X-62423Y587258D01*
X-62490Y587144D01*
X-62560Y587031D01*
X-62634Y586921D01*
X-62710Y586813D01*
X-62790Y586707D01*
X-62873Y586603D01*
X-62959Y586502D01*
X-63048Y586404D01*
X-63139Y586308D01*
X-63234Y586215D01*
X-63331Y586125D01*
X-63431Y586038D01*
X-63533Y585953D01*
X-63638Y585872D01*
X-63745Y585794D01*
X-63854Y585718D01*
X-63965Y585647D01*
X-64079Y585578D01*
X-64194Y585513D01*
X-64312Y585451D01*
X-64431Y585393D01*
X-64552Y585338D01*
X-64674Y585287D01*
X-64798Y585239D01*
X-64923Y585195D01*
X-65049Y585155D01*
X-65177Y585119D01*
X-65305Y585086D01*
X-65434Y585057D01*
X-65565Y585032D01*
X-65695Y585011D01*
X-65827Y584993D01*
X-65959Y584980D01*
X-66091Y584970D01*
X-66223Y584964D01*
X-66356Y584962D01*
X-70872Y584962D01*
X-70872Y601218D01*
X-66356Y601218D01*
X-66237Y601216D01*
X-66117Y601210D01*
X-65998Y601200D01*
X-65880Y601186D01*
X-65761Y601169D01*
X-65644Y601147D01*
X-65527Y601122D01*
X-65412Y601092D01*
X-65297Y601059D01*
X-65183Y601022D01*
X-65071Y600982D01*
X-64960Y600937D01*
X-64851Y600889D01*
X-64743Y600838D01*
X-64637Y600783D01*
X-64533Y600724D01*
X-64431Y600662D01*
X-64331Y600597D01*
X-64233Y600528D01*
X-64137Y600456D01*
X-64044Y600381D01*
X-63954Y600304D01*
X-63866Y600223D01*
X-63781Y600139D01*
X-63699Y600052D01*
X-63619Y599963D01*
X-63543Y599871D01*
X-63469Y599777D01*
X-63399Y599680D01*
X-63332Y599582D01*
X-63268Y599481D01*
X-63208Y599377D01*
X-63151Y599272D01*
X-63098Y599165D01*
X-63048Y599057D01*
X-63002Y598947D01*
X-62960Y598835D01*
X-62921Y598722D01*
X-62886Y598608D01*
X-62855Y598493D01*
X-62827Y598376D01*
X-62804Y598259D01*
X-62784Y598142D01*
X-62768Y598023D01*
X-62756Y597904D01*
X-62748Y597785D01*
X-62744Y597666D01*
X-62744Y597546D01*
X-62748Y597427D01*
X-62756Y597308D01*
X-62768Y597189D01*
X-62784Y597070D01*
X-62804Y596953D01*
X-62827Y596836D01*
X-62855Y596719D01*
X-62886Y596604D01*
X-62921Y596490D01*
X-62960Y596377D01*
X-63002Y596265D01*
X-63048Y596155D01*
X-63098Y596047D01*
X-63151Y595940D01*
X-63208Y595835D01*
X-63268Y595731D01*
X-63332Y595630D01*
X-63399Y595532D01*
X-63469Y595435D01*
X-63543Y595341D01*
X-63619Y595249D01*
X-63699Y595160D01*
X-63781Y595073D01*
X-63866Y594989D01*
X-63954Y594908D01*
X-64044Y594831D01*
X-64137Y594756D01*
X-64233Y594684D01*
X-64331Y594615D01*
X-64431Y594550D01*
X-64533Y594488D01*
X-64637Y594429D01*
X-64743Y594374D01*
X-64851Y594323D01*
X-64960Y594275D01*
X-65071Y594230D01*
X-65183Y594190D01*
X-65297Y594153D01*
X-65412Y594120D01*
X-65527Y594090D01*
X-65644Y594065D01*
X-65761Y594043D01*
X-65880Y594026D01*
X-65998Y594012D01*
X-66117Y594002D01*
X-66237Y593996D01*
X-66356Y593994D01*
X-52399Y584962D02*
X-48787Y584962D01*
X-52399Y584962D02*
X-52517Y584964D01*
X-52635Y584970D01*
X-52753Y584979D01*
X-52870Y584993D01*
X-52987Y585010D01*
X-53104Y585031D01*
X-53219Y585056D01*
X-53334Y585085D01*
X-53448Y585118D01*
X-53560Y585154D01*
X-53671Y585194D01*
X-53781Y585237D01*
X-53890Y585284D01*
X-53997Y585334D01*
X-54102Y585389D01*
X-54205Y585446D01*
X-54306Y585507D01*
X-54406Y585571D01*
X-54503Y585638D01*
X-54598Y585708D01*
X-54690Y585782D01*
X-54781Y585858D01*
X-54868Y585938D01*
X-54953Y586020D01*
X-55035Y586105D01*
X-55115Y586192D01*
X-55191Y586283D01*
X-55265Y586375D01*
X-55335Y586470D01*
X-55402Y586567D01*
X-55466Y586667D01*
X-55527Y586768D01*
X-55584Y586871D01*
X-55639Y586976D01*
X-55689Y587083D01*
X-55736Y587192D01*
X-55779Y587302D01*
X-55819Y587413D01*
X-55855Y587525D01*
X-55888Y587639D01*
X-55917Y587754D01*
X-55942Y587869D01*
X-55963Y587986D01*
X-55980Y588103D01*
X-55994Y588220D01*
X-56003Y588338D01*
X-56009Y588456D01*
X-56011Y588574D01*
X-56012Y588574D02*
X-56012Y597606D01*
X-56011Y597606D02*
X-56009Y597724D01*
X-56003Y597842D01*
X-55994Y597960D01*
X-55980Y598077D01*
X-55963Y598194D01*
X-55942Y598311D01*
X-55917Y598426D01*
X-55888Y598541D01*
X-55855Y598655D01*
X-55819Y598767D01*
X-55779Y598878D01*
X-55736Y598988D01*
X-55689Y599097D01*
X-55639Y599204D01*
X-55584Y599309D01*
X-55527Y599412D01*
X-55466Y599513D01*
X-55402Y599613D01*
X-55335Y599710D01*
X-55265Y599805D01*
X-55191Y599897D01*
X-55115Y599988D01*
X-55035Y600075D01*
X-54953Y600160D01*
X-54868Y600242D01*
X-54781Y600322D01*
X-54690Y600398D01*
X-54598Y600472D01*
X-54503Y600542D01*
X-54406Y600609D01*
X-54306Y600673D01*
X-54205Y600734D01*
X-54102Y600791D01*
X-53997Y600846D01*
X-53890Y600896D01*
X-53781Y600943D01*
X-53671Y600986D01*
X-53560Y601026D01*
X-53448Y601062D01*
X-53334Y601095D01*
X-53219Y601124D01*
X-53104Y601149D01*
X-52987Y601170D01*
X-52870Y601187D01*
X-52753Y601201D01*
X-52635Y601210D01*
X-52517Y601216D01*
X-52399Y601218D01*
X-48787Y601218D01*
X-31136Y601218D02*
X-31136Y584962D01*
X-35652Y601218D02*
X-26621Y601218D01*
X-20512Y584962D02*
X-13287Y584962D01*
X-20512Y584962D02*
X-20512Y601218D01*
X-13287Y601218D01*
X-15093Y593993D02*
X-20512Y593993D01*
X-3943Y584962D02*
X-330Y584962D01*
X-3943Y584962D02*
X-4061Y584964D01*
X-4179Y584970D01*
X-4297Y584979D01*
X-4414Y584993D01*
X-4531Y585010D01*
X-4648Y585031D01*
X-4763Y585056D01*
X-4878Y585085D01*
X-4992Y585118D01*
X-5104Y585154D01*
X-5215Y585194D01*
X-5325Y585237D01*
X-5434Y585284D01*
X-5541Y585334D01*
X-5646Y585389D01*
X-5749Y585446D01*
X-5850Y585507D01*
X-5950Y585571D01*
X-6047Y585638D01*
X-6142Y585708D01*
X-6234Y585782D01*
X-6325Y585858D01*
X-6412Y585938D01*
X-6497Y586020D01*
X-6579Y586105D01*
X-6659Y586192D01*
X-6735Y586283D01*
X-6809Y586375D01*
X-6879Y586470D01*
X-6946Y586567D01*
X-7010Y586667D01*
X-7071Y586768D01*
X-7128Y586871D01*
X-7183Y586976D01*
X-7233Y587083D01*
X-7280Y587192D01*
X-7323Y587302D01*
X-7363Y587413D01*
X-7399Y587525D01*
X-7432Y587639D01*
X-7461Y587754D01*
X-7486Y587869D01*
X-7507Y587986D01*
X-7524Y588103D01*
X-7538Y588220D01*
X-7547Y588338D01*
X-7553Y588456D01*
X-7555Y588574D01*
X-7555Y597606D01*
X-7553Y597724D01*
X-7547Y597842D01*
X-7538Y597960D01*
X-7524Y598077D01*
X-7507Y598194D01*
X-7486Y598311D01*
X-7461Y598426D01*
X-7432Y598541D01*
X-7399Y598655D01*
X-7363Y598767D01*
X-7323Y598878D01*
X-7280Y598988D01*
X-7233Y599097D01*
X-7183Y599204D01*
X-7128Y599309D01*
X-7071Y599412D01*
X-7010Y599513D01*
X-6946Y599613D01*
X-6879Y599710D01*
X-6809Y599805D01*
X-6735Y599897D01*
X-6659Y599988D01*
X-6579Y600075D01*
X-6497Y600160D01*
X-6412Y600242D01*
X-6325Y600322D01*
X-6234Y600398D01*
X-6142Y600472D01*
X-6047Y600542D01*
X-5950Y600609D01*
X-5850Y600673D01*
X-5749Y600734D01*
X-5646Y600791D01*
X-5541Y600846D01*
X-5434Y600896D01*
X-5325Y600943D01*
X-5215Y600986D01*
X-5104Y601026D01*
X-4992Y601062D01*
X-4878Y601095D01*
X-4763Y601124D01*
X-4648Y601149D01*
X-4531Y601170D01*
X-4414Y601187D01*
X-4297Y601201D01*
X-4179Y601210D01*
X-4061Y601216D01*
X-3943Y601218D01*
X-330Y601218D01*
X6031Y601218D02*
X6031Y584962D01*
X6031Y593993D02*
X15063Y593993D01*
X15063Y601218D02*
X15063Y584962D01*
D11*
X469900Y457200D03*
X469900Y482600D03*
X533400Y457200D03*
X533400Y482600D03*
D12*
X152400Y596900D03*
X152400Y495300D03*
X114300Y457200D03*
X114300Y355600D03*
X114300Y596900D03*
X114300Y495300D03*
X152400Y457200D03*
X152400Y355600D03*
D13*
X245618Y495300D02*
X262382Y495300D01*
X262382Y469900D02*
X245618Y469900D01*
X245618Y444500D02*
X262382Y444500D01*
D14*
X609727Y450088D02*
X634873Y450088D01*
X634873Y489712D02*
X609727Y489712D01*
X-165227Y437388D02*
X-190373Y437388D01*
X-190373Y477012D02*
X-165227Y477012D01*
D15*
X-1288Y483057D03*
X-51257Y481312D03*
X-49512Y431343D03*
X457Y433088D03*
D16*
X-24091Y419723D03*
X-26709Y494677D03*
D15*
X-50385Y456328D03*
M02*
