G04 EAGLE Gerber RS-274X export*
G75*
%MOMM*%
%FSLAX34Y34*%
%LPD*%
%IN*%
%IPPOS*%
%AMOC8*
5,1,8,0,0,1.08239X$1,22.5*%
G01*
%ADD10C,0.254000*%


D10*
X-228600Y393700D02*
X-152400Y317500D01*
X609600Y317500D01*
X707900Y415800D01*
X707900Y524000D01*
X609700Y622200D01*
X-165200Y622200D01*
X-228600Y558800D01*
X-228600Y393700D01*
X-137950Y596728D02*
X-138017Y596390D01*
X-138149Y596071D01*
X-138341Y595784D01*
X-138584Y595541D01*
X-138871Y595349D01*
X-139190Y595217D01*
X-139528Y595150D01*
X-139872Y595150D01*
X-140210Y595217D01*
X-140529Y595349D01*
X-140816Y595541D01*
X-141059Y595784D01*
X-141251Y596071D01*
X-141383Y596390D01*
X-141450Y596728D01*
X-141450Y597072D01*
X-141383Y597410D01*
X-141251Y597729D01*
X-141059Y598016D01*
X-140816Y598259D01*
X-140529Y598451D01*
X-140210Y598583D01*
X-139872Y598650D01*
X-139528Y598650D01*
X-139190Y598583D01*
X-138871Y598451D01*
X-138584Y598259D01*
X-138341Y598016D01*
X-138149Y597729D01*
X-138017Y597410D01*
X-137950Y597072D01*
X-137950Y596728D01*
X573250Y596728D02*
X573183Y596390D01*
X573051Y596071D01*
X572859Y595784D01*
X572616Y595541D01*
X572329Y595349D01*
X572010Y595217D01*
X571672Y595150D01*
X571328Y595150D01*
X570990Y595217D01*
X570671Y595349D01*
X570384Y595541D01*
X570141Y595784D01*
X569949Y596071D01*
X569817Y596390D01*
X569750Y596728D01*
X569750Y597072D01*
X569817Y597410D01*
X569949Y597729D01*
X570141Y598016D01*
X570384Y598259D01*
X570671Y598451D01*
X570990Y598583D01*
X571328Y598650D01*
X571672Y598650D01*
X572010Y598583D01*
X572329Y598451D01*
X572616Y598259D01*
X572859Y598016D01*
X573051Y597729D01*
X573183Y597410D01*
X573250Y597072D01*
X573250Y596728D01*
X573250Y342728D02*
X573183Y342390D01*
X573051Y342071D01*
X572859Y341784D01*
X572616Y341541D01*
X572329Y341349D01*
X572010Y341217D01*
X571672Y341150D01*
X571328Y341150D01*
X570990Y341217D01*
X570671Y341349D01*
X570384Y341541D01*
X570141Y341784D01*
X569949Y342071D01*
X569817Y342390D01*
X569750Y342728D01*
X569750Y343072D01*
X569817Y343410D01*
X569949Y343729D01*
X570141Y344016D01*
X570384Y344259D01*
X570671Y344451D01*
X570990Y344583D01*
X571328Y344650D01*
X571672Y344650D01*
X572010Y344583D01*
X572329Y344451D01*
X572616Y344259D01*
X572859Y344016D01*
X573051Y343729D01*
X573183Y343410D01*
X573250Y343072D01*
X573250Y342728D01*
X-137950Y342728D02*
X-138017Y342390D01*
X-138149Y342071D01*
X-138341Y341784D01*
X-138584Y341541D01*
X-138871Y341349D01*
X-139190Y341217D01*
X-139528Y341150D01*
X-139872Y341150D01*
X-140210Y341217D01*
X-140529Y341349D01*
X-140816Y341541D01*
X-141059Y341784D01*
X-141251Y342071D01*
X-141383Y342390D01*
X-141450Y342728D01*
X-141450Y343072D01*
X-141383Y343410D01*
X-141251Y343729D01*
X-141059Y344016D01*
X-140816Y344259D01*
X-140529Y344451D01*
X-140210Y344583D01*
X-139872Y344650D01*
X-139528Y344650D01*
X-139190Y344583D01*
X-138871Y344451D01*
X-138584Y344259D01*
X-138341Y344016D01*
X-138149Y343729D01*
X-138017Y343410D01*
X-137950Y343072D01*
X-137950Y342728D01*
X403320Y453390D02*
X402241Y453461D01*
X401169Y453602D01*
X400109Y453813D01*
X399065Y454092D01*
X398041Y454440D01*
X397043Y454854D01*
X396073Y455332D01*
X395137Y455872D01*
X394238Y456473D01*
X393381Y457131D01*
X392568Y457844D01*
X391804Y458608D01*
X391091Y459421D01*
X390433Y460278D01*
X389832Y461177D01*
X389292Y462113D01*
X388814Y463083D01*
X388400Y464081D01*
X388052Y465105D01*
X387773Y466149D01*
X387562Y467209D01*
X387421Y468281D01*
X387350Y469360D01*
X387350Y470440D01*
X387421Y471519D01*
X387562Y472591D01*
X387773Y473651D01*
X388052Y474695D01*
X388400Y475719D01*
X388814Y476717D01*
X389292Y477687D01*
X389832Y478623D01*
X390433Y479522D01*
X391091Y480379D01*
X391804Y481192D01*
X392568Y481957D01*
X393381Y482669D01*
X394238Y483327D01*
X395137Y483928D01*
X396073Y484468D01*
X397043Y484946D01*
X398041Y485360D01*
X399065Y485708D01*
X400109Y485987D01*
X401169Y486198D01*
X402241Y486339D01*
X403320Y486410D01*
X404400Y486410D01*
X405479Y486339D01*
X406551Y486198D01*
X407611Y485987D01*
X408655Y485708D01*
X409679Y485360D01*
X410677Y484946D01*
X411647Y484468D01*
X412583Y483928D01*
X413482Y483327D01*
X414339Y482669D01*
X415152Y481957D01*
X415917Y481192D01*
X416629Y480379D01*
X417287Y479522D01*
X417888Y478623D01*
X418428Y477687D01*
X418906Y476717D01*
X419320Y475719D01*
X419668Y474695D01*
X419947Y473651D01*
X420158Y472591D01*
X420299Y471519D01*
X420370Y470440D01*
X420370Y469360D01*
X420299Y468281D01*
X420158Y467209D01*
X419947Y466149D01*
X419668Y465105D01*
X419320Y464081D01*
X418906Y463083D01*
X418428Y462113D01*
X417888Y461177D01*
X417287Y460278D01*
X416629Y459421D01*
X415917Y458608D01*
X415152Y457844D01*
X414339Y457131D01*
X413482Y456473D01*
X412583Y455872D01*
X411647Y455332D01*
X410677Y454854D01*
X409679Y454440D01*
X408655Y454092D01*
X407611Y453813D01*
X406551Y453602D01*
X405479Y453461D01*
X404400Y453390D01*
X403320Y453390D01*
M02*
