M48
;GenerationSoftware,Autodesk,EAGLE,9.6.2*%
;CreationDate,2023-06-20T09:44:50Z*%
FMAT,2
ICI,OFF
METRIC,TZ,000.000
T6C0.350
T5C0.800
T4C0.813
T3C0.900
T2C1.800
T1C3.000
%
G90
M71
T1
X22860Y52070
X66040Y52070
X66040Y31750
X22860Y31750
X22860Y31750
X22860Y52070
X66040Y52070
X66040Y31750
T2
X48260Y11430
X40640Y67310
X46990Y67310
X53340Y67310
X35560Y11430
X41910Y11430
T3
X78740Y20050
X78740Y18050
X78740Y40370
X78740Y38370
X78740Y32750
X78740Y30750
X78740Y26400
X78740Y24400
X78740Y51070
X78740Y53070
X78740Y44720
X78740Y46720
T4
X85090Y40640
X85090Y30480
X85090Y33020
X85090Y25400
X85090Y27940
X93980Y59690
X107950Y39370
X107950Y41910
X109220Y53340
X109220Y55880
X86360Y53340
X86360Y55880
X69342Y67310
X71374Y67310
X73406Y67310
X75438Y67310
X95250Y61595
X96520Y59690
X85090Y38100
X107950Y27940
X107950Y30480
X86360Y16510
X86360Y19050
X107950Y16510
X107950Y19050
X85090Y44450
X85090Y46990
T5
X29210Y30480
X36830Y53340
X34290Y53340
X31750Y53340
X57150Y30480
X59690Y30480
X26670Y53340
X29210Y53340
X57150Y53340
X54610Y53340
X52070Y53340
X49530Y53340
X46990Y53340
X44450Y53340
X41910Y53340
X39370Y53340
X62230Y53340
X26670Y30480
X62230Y30480
X31750Y30480
X34290Y30480
X36830Y30480
X39370Y30480
X41910Y30480
X59690Y53340
X44450Y30480
X46990Y30480
X49530Y30480
X52070Y30480
X54610Y30480
T6
X11430Y72390
X109220Y72390
X109220Y6350
X63500Y13970
X62230Y66040
X30480Y15240
M30