M48
;GenerationSoftware,Autodesk,EAGLE,9.6.2*%
;CreationDate,2023-06-19T05:32:14Z*%
FMAT,2
ICI,OFF
METRIC,TZ,000.000
T7C0.350
T6C0.813
T5C1.100
T4C1.118
T3C1.300
T2C1.676
T1C3.302
%
G90
M71
T1
X40386Y46990
T2
X62230Y45009
X62230Y48971
X-17780Y43739
X-17780Y47701
T3
X-2409Y41972
X-2671Y49468
T4
X15240Y59690
X15240Y49530
X11430Y45720
X11430Y35560
X11430Y59690
X11430Y49530
X15240Y45720
X15240Y35560
X25400Y49530
X25400Y46990
X25400Y44450
T5
X-129Y48306
X-5126Y48131
X-4951Y43134
X46Y43309
X-5038Y45633
T6
X46990Y45720
X46990Y48260
X53340Y45720
X53340Y48260
T7
X-13970Y59690
X57150Y59690
X57150Y34290
X-13970Y34290
M30