G04 EAGLE Gerber RS-274X export*
G75*
%MOMM*%
%FSLAX34Y34*%
%LPD*%
%INSoldermask Top*%
%IPPOS*%
%AMOC8*
5,1,8,0,0,1.08239X$1,22.5*%
G01*
%ADD10C,0.553200*%
%ADD11P,1.649562X8X112.500000*%
%ADD12C,1.611200*%
%ADD13P,1.951982X8X112.500000*%
%ADD14C,1.524000*%
%ADD15C,4.013200*%
%ADD16C,1.511200*%
%ADD17C,3.203200*%
%ADD18C,4.219200*%
%ADD19R,3.203200X1.803200*%
%ADD20R,4.394200X5.029200*%
%ADD21P,1.649562X8X22.500000*%


D10*
X304800Y152400D03*
X114300Y723900D03*
X1092200Y723900D03*
X1092200Y63500D03*
X635000Y139700D03*
X622300Y660400D03*
D11*
X1079500Y393700D03*
X1079500Y419100D03*
D12*
X787400Y327500D03*
X787400Y307500D03*
X787400Y264000D03*
X787400Y244000D03*
D13*
X1092200Y533400D03*
X1092200Y558800D03*
X863600Y533400D03*
X863600Y558800D03*
D14*
X693420Y666496D02*
X693420Y679704D01*
X713740Y679704D02*
X713740Y666496D01*
X734060Y666496D02*
X734060Y679704D01*
X754380Y679704D02*
X754380Y666496D01*
D15*
X355600Y114300D03*
X419100Y114300D03*
X482600Y114300D03*
D12*
X787400Y200500D03*
X787400Y180500D03*
X787400Y403700D03*
X787400Y383700D03*
D16*
X266700Y526860D02*
X266700Y539940D01*
X292100Y539940D02*
X292100Y526860D01*
X317500Y526860D02*
X317500Y539940D01*
X342900Y539940D02*
X342900Y526860D01*
X368300Y526860D02*
X368300Y539940D01*
X393700Y539940D02*
X393700Y526860D01*
X419100Y526860D02*
X419100Y539940D01*
X444500Y539940D02*
X444500Y526860D01*
X469900Y526860D02*
X469900Y539940D01*
X495300Y539940D02*
X495300Y526860D01*
X520700Y526860D02*
X520700Y539940D01*
X546100Y539940D02*
X546100Y526860D01*
X571500Y526860D02*
X571500Y539940D01*
X596900Y539940D02*
X596900Y526860D01*
X622300Y526860D02*
X622300Y539940D01*
X266700Y311340D02*
X266700Y298260D01*
X292100Y298260D02*
X292100Y311340D01*
X317500Y311340D02*
X317500Y298260D01*
X342900Y298260D02*
X342900Y311340D01*
X368300Y311340D02*
X368300Y298260D01*
X393700Y298260D02*
X393700Y311340D01*
X419100Y311340D02*
X419100Y298260D01*
X444500Y298260D02*
X444500Y311340D01*
X469900Y311340D02*
X469900Y298260D01*
X495300Y298260D02*
X495300Y311340D01*
X520700Y311340D02*
X520700Y298260D01*
X546100Y298260D02*
X546100Y311340D01*
X571500Y311340D02*
X571500Y298260D01*
X596900Y298260D02*
X596900Y311340D01*
X622300Y311340D02*
X622300Y298260D01*
D17*
X228600Y520700D03*
X660400Y520700D03*
X660400Y317500D03*
X228600Y317500D03*
D18*
X228600Y520700D03*
X228600Y317500D03*
X660400Y317500D03*
X660400Y520700D03*
D12*
X787400Y467200D03*
X787400Y447200D03*
X787400Y530700D03*
X787400Y510700D03*
D11*
X1079500Y279400D03*
X1079500Y304800D03*
X863600Y165100D03*
X863600Y190500D03*
X1079500Y165100D03*
X1079500Y190500D03*
X850900Y444500D03*
X850900Y469900D03*
X850900Y381000D03*
X850900Y406400D03*
X850900Y304800D03*
X850900Y330200D03*
X850900Y254000D03*
X850900Y279400D03*
D15*
X533400Y673100D03*
X469900Y673100D03*
X406400Y673100D03*
D19*
X1005600Y155000D03*
X1005600Y200600D03*
D20*
X944240Y177800D03*
D19*
X1005600Y269300D03*
X1005600Y314900D03*
D20*
X944240Y292100D03*
D19*
X1005600Y370900D03*
X1005600Y416500D03*
D20*
X944240Y393700D03*
D19*
X1005600Y472500D03*
X1005600Y518100D03*
D20*
X944240Y495300D03*
D21*
X939800Y596900D03*
X952500Y615950D03*
X965200Y596900D03*
M02*
